<svg xmlns="http://www.w3.org/2000/svg" viewBox="0 0 516 516" width="516" height="516"><style>tspan { white-space:pre }.shp0 { fill: #ffffff } </style><path class="shp0" d="M225.56 193.33L290 193.33L290 112.78L354.44 112.78L257.78 0L161.11 112.78L225.56 112.78L225.56 193.33L225.56 193.33Z" /><path class="shp0" d="M290 322.22L225.56 322.22L225.56 402.78L161.11 402.78L257.78 515.56L354.45 402.78L290 402.78L290 322.22Z" /><path class="shp0" d="M515.56 257.78L402.78 161.11L402.78 225.56L322.22 225.56L322.22 290L402.78 290L402.78 354.44L515.56 257.78Z" /><path class="shp0" d="M193.33 290L193.33 225.56L112.78 225.56L112.78 161.11L0 257.78L112.78 354.44L112.78 290L193.33 290Z" /></svg>