<?xml version="1.0" encoding="utf-8"?>
<!-- Generator: Adobe Illustrator 21.0.2, SVG Export Plug-In . SVG Version: 6.00 Build 0)  -->
<svg version="1.1" id="Capa_1" xmlns="http://www.w3.org/2000/svg" xmlns:xlink="http://www.w3.org/1999/xlink" x="0px" y="0px"
	 viewBox="0 0 512 512" style="enable-background:new 0 0 512 512;" xml:space="preserve">
<style type="text/css">
	.st0{fill:#C9C9C9;}
</style>
<path class="st0" d="M256,104.7c40.4,0,78.4,15.7,107,44.3s44.3,66.6,44.3,107s-15.7,78.4-44.3,107s-66.6,44.3-107,44.3
	s-78.4-15.7-107-44.3s-44.3-66.6-44.3-107s15.7-78.4,44.3-107S215.6,104.7,256,104.7 M256,84.7c-94.6,0-171.3,76.7-171.3,171.3
	S161.4,427.3,256,427.3S427.3,350.6,427.3,256S350.6,84.7,256,84.7L256,84.7z"/>
<path class="st0" d="M325.3,186.7C307.6,169,283.1,158,256,158c-54.1,0-98,43.9-98,98c0,27.1,11,51.6,28.7,69.3L325.3,186.7z"/>
<path class="st0" d="M325.3,186.7C307.6,169,283.1,158,256,158c-54.1,0-98,43.9-98,98c0,27.1,11,51.6,28.7,69.3L325.3,186.7z"/>
<rect x="-34.7" y="245.9" transform="matrix(0.7071 -0.7071 0.7071 0.7071 -106.2605 256.5671)" class="st0" width="582.6" height="21.2"/>
</svg>
