<?xml version="1.0" encoding="utf-8"?>
<!-- Generator: Adobe Illustrator 21.0.2, SVG Export Plug-In . SVG Version: 6.00 Build 0)  -->
<svg version="1.1" id="Capa_1" xmlns="http://www.w3.org/2000/svg" xmlns:xlink="http://www.w3.org/1999/xlink" x="0px" y="0px"
	 viewBox="0 0 438.5 438.5" style="enable-background:new 0 0 438.5 438.5;" xml:space="preserve">
<style type="text/css">
	.st0{fill:#FFFFFF;}
</style>
<g>
	<path class="st0" d="M431.8,182.2c-1.5-2-3.5-3.1-5.9-3.5l-51.2-7.8c-2.8-8.9-6.6-18.1-11.5-27.4c3.4-4.7,8.4-11.2,15.1-19.7
		c6.7-8.5,11.5-14.7,14.3-18.6c1.5-2.1,2.2-4.2,2.2-6.4c0-2.6-0.6-4.7-2-6.2c-6.7-9.5-22.1-25.4-46.1-47.5c-2.2-1.9-4.6-2.8-7-2.8
		c-2.8,0-5,0.8-6.7,2.5l-39.7,29.9c-7.6-3.9-16-7.4-25.2-10.3l-7.8-51.4c-0.2-2.4-1.3-4.4-3.2-6c-2-1.6-4.2-2.4-6.9-2.4h-62.1
		c-5.4,0-8.8,2.6-10.1,7.8c-2.4,9.3-5.1,26.7-8.1,52c-8.8,2.8-17.2,6.3-25.4,10.6L106,45.1c-2.4-1.9-4.8-2.8-7.3-2.8
		c-4.1,0-12.9,6.7-26.4,20C58.8,75.6,49.6,85.6,44.8,92.3c-1.7,2.4-2.5,4.6-2.5,6.4c0,2.2,0.9,4.5,2.8,6.7
		c12.5,15.1,22.5,28,29.9,38.6c-4.7,8.6-8.3,17.1-10.9,25.7l-52,7.8c-2,0.4-3.8,1.6-5.3,3.6c-1.5,2-2.2,4.2-2.2,6.4v62.1
		c0,2.4,0.7,4.6,2.2,6.6c1.5,2,3.4,3.1,5.9,3.5l51.2,7.6c2.6,9.1,6.4,18.4,11.5,27.7c-3.4,4.7-8.4,11.2-15.1,19.7
		c-6.7,8.5-11.5,14.7-14.3,18.6c-1.5,2.1-2.2,4.2-2.2,6.4c0,2.4,0.7,4.6,2,6.4c7.3,10.1,22.6,25.7,46.1,47c2.1,2.1,4.4,3.1,7,3.1
		c2.8,0,5.1-0.8,7-2.5l39.4-29.9c7.6,3.9,16,7.4,25.2,10.3l7.8,51.4c0.2,2.4,1.3,4.4,3.2,6c2,1.6,4.2,2.4,6.9,2.4h62.1
		c5.4,0,8.8-2.6,10.1-7.8c2.4-9.3,5.1-26.7,8.1-52c8.8-2.8,17.2-6.3,25.4-10.6l38.6,30.2c2.6,1.7,5,2.5,7.3,2.5
		c4.1,0,12.9-6.6,26.3-19.9c13.4-13.2,22.7-23.3,27.7-30.2c1.7-1.9,2.5-4,2.5-6.4c0-2.4-0.9-4.8-2.8-7
		c-13.4-16.4-23.4-29.3-29.9-38.6c3.7-6.9,7.4-15.4,10.9-25.4l51.7-7.8c2.2-0.4,4.1-1.6,5.6-3.6c1.5-2.1,2.2-4.2,2.2-6.4v-62.1
		C434,186.4,433.3,184.2,431.8,182.2z M269.9,269.9c-14,14-30.8,21-50.6,21c-19.8,0-36.6-7-50.6-21c-14-14-21-30.8-21-50.6
		c0-19.8,7-36.6,21-50.6c14-14,30.9-21,50.6-21c19.8,0,36.6,7,50.6,21c14,14,21,30.9,21,50.6C290.8,239,283.9,255.9,269.9,269.9z"/>
</g>
</svg>
